<svg style="position: absolute; width: 0; height: 0; overflow: hidden;" version="1.1" xmlns="http://www.w3.org/2000/svg" xmlns:xlink="http://www.w3.org/1999/xlink">
<defs>
<symbol id="icon-heart-full" viewBox="0 0 32 32">
<title>heart-full</title>
<path d="M16.042 8.345c0 0-2-4.262-6.5-4.262-4.917 0-7.5 4.167-7.5 8.333 0 6.917 14 15.5 14 15.5s13.916-8.5 13.916-15.5c0-4.25-2.666-8.333-7.416-8.333s-6.5 4.262-6.5 4.262z"></path>
</symbol>
<symbol id="icon-presentation" viewBox="0 0 438.891 438.891">
  <title>presentation</title>
  <g>
  	<g>
  		<g>
  			<path d="M347.968,57.503h-39.706V39.74c0-5.747-6.269-8.359-12.016-8.359h-30.824c-7.314-20.898-25.6-31.347-46.498-31.347
  				c-20.668-0.777-39.467,11.896-46.498,31.347h-30.302c-5.747,0-11.494,2.612-11.494,8.359v17.763H90.923
  				c-23.53,0.251-42.78,18.813-43.886,42.318v299.363c0,22.988,20.898,39.706,43.886,39.706h257.045
  				c22.988,0,43.886-16.718,43.886-39.706V99.822C390.748,76.316,371.498,57.754,347.968,57.503z M151.527,52.279h28.735
  				c5.016-0.612,9.045-4.428,9.927-9.404c3.094-13.474,14.915-23.146,28.735-23.51c13.692,0.415,25.335,10.117,28.212,23.51
  				c0.937,5.148,5.232,9.013,10.449,9.404h29.78v41.796H151.527V52.279z M370.956,399.185c0,11.494-11.494,18.808-22.988,18.808
  				H90.923c-11.494,0-22.988-7.314-22.988-18.808V99.822c1.066-11.964,10.978-21.201,22.988-21.42h39.706v26.645
  				c0.552,5.854,5.622,10.233,11.494,9.927h154.122c5.98,0.327,11.209-3.992,12.016-9.927V78.401h39.706
  				c12.009,0.22,21.922,9.456,22.988,21.42V399.185z"/>
  			<path d="M179.217,233.569c-3.919-4.131-10.425-4.364-14.629-0.522l-33.437,31.869l-14.106-14.629
  				c-3.919-4.131-10.425-4.363-14.629-0.522c-4.047,4.24-4.047,10.911,0,15.151l21.42,21.943c1.854,2.076,4.532,3.224,7.314,3.135
  				c2.756-0.039,5.385-1.166,7.314-3.135l40.751-38.661c4.04-3.706,4.31-9.986,0.603-14.025
  				C179.628,233.962,179.427,233.761,179.217,233.569z"/>
  			<path d="M329.16,256.034H208.997c-5.771,0-10.449,4.678-10.449,10.449s4.678,10.449,10.449,10.449H329.16
  				c5.771,0,10.449-4.678,10.449-10.449S334.931,256.034,329.16,256.034z"/>
  			<path d="M179.217,149.977c-3.919-4.131-10.425-4.364-14.629-0.522l-33.437,31.869l-14.106-14.629
  				c-3.919-4.131-10.425-4.364-14.629-0.522c-4.047,4.24-4.047,10.911,0,15.151l21.42,21.943c1.854,2.076,4.532,3.224,7.314,3.135
  				c2.756-0.039,5.385-1.166,7.314-3.135l40.751-38.661c4.04-3.706,4.31-9.986,0.603-14.025
  				C179.628,150.37,179.427,150.169,179.217,149.977z"/>
  			<path d="M329.16,172.442H208.997c-5.771,0-10.449,4.678-10.449,10.449s4.678,10.449,10.449,10.449H329.16
  				c5.771,0,10.449-4.678,10.449-10.449S334.931,172.442,329.16,172.442z"/>
  			<path d="M179.217,317.16c-3.919-4.131-10.425-4.363-14.629-0.522l-33.437,31.869l-14.106-14.629
  				c-3.919-4.131-10.425-4.363-14.629-0.522c-4.047,4.24-4.047,10.911,0,15.151l21.42,21.943c1.854,2.076,4.532,3.224,7.314,3.135
  				c2.756-0.039,5.385-1.166,7.314-3.135l40.751-38.661c4.04-3.706,4.31-9.986,0.603-14.025
  				C179.628,317.554,179.427,317.353,179.217,317.16z"/>
  			<path d="M329.16,339.626H208.997c-5.771,0-10.449,4.678-10.449,10.449s4.678,10.449,10.449,10.449H329.16
  				c5.771,0,10.449-4.678,10.449-10.449S334.931,339.626,329.16,339.626z"/>
  		</g>
  	</g>
  </g>
  <g>
  </g>
  <g>
  </g>
  <g>
  </g>
  <g>
  </g>
  <g>
  </g>
  <g>
  </g>
  <g>
  </g>
  <g>
  </g>
  <g>
  </g>
  <g>
  </g>
  <g>
  </g>
  <g>
  </g>
  <g>
  </g>
  <g>
  </g>
  <g>
  </g>
  </symbol>
  <symbol id="icon-expand" viewBox="0 0 32 32">
  <title>expand</title>
  <path d="M32 30.5v-29c0-0.827-0.673-1.5-1.5-1.5h-29c-0.827 0-1.5 0.673-1.5 1.5v9c0 0.276 0.224 0.5 0.5 0.5s0.5-0.224 0.5-0.5v-9c0-0.276 0.225-0.5 0.5-0.5h29c0.275 0 0.5 0.224 0.5 0.5v29c0 0.276-0.225 0.5-0.5 0.5h-9c-0.276 0-0.5 0.224-0.5 0.5s0.224 0.5 0.5 0.5h9c0.827 0 1.5-0.673 1.5-1.5zM1.5 13c-0.827 0-1.5 0.673-1.5 1.5v16c0 0.827 0.673 1.5 1.5 1.5h16c0.827 0 1.5-0.673 1.5-1.5v-16.793l7-7v6.793c0 0.276 0.224 0.5 0.5 0.5s0.5-0.224 0.5-0.5v-8c0-0.276-0.224-0.5-0.5-0.5h-8c-0.276 0-0.5 0.224-0.5 0.5s0.224 0.5 0.5 0.5h6.792l-7 7h-16.792zM18 30.5c0 0.276-0.225 0.5-0.5 0.5h-16c-0.275 0-0.5-0.224-0.5-0.5v-16c0-0.276 0.225-0.5 0.5-0.5h16.5v16.5z"></path>
  </symbol>
  <symbol id="icon-lock" viewBox="0 0 512 512">
  <title>lock</title>
  <path d="M471.982,417.008Q472,416.5,472,416a32.036,32.036,0,0,0-32-32V236l28.8-21.6a8,8,0,0,0-.08-12.859L400,151.322V64a8,8,0,0,0,8-8V24a8,8,0,0,0-8-8H320a8,8,0,0,0-8,8V56a8,8,0,0,0,8,8V92.861l-59.28-43.32a8,8,0,0,0-9.44,0l-208,152A8,8,0,0,0,43.2,214.4L72,236V384a32.036,32.036,0,0,0-32,32q0,.5.018,1.008A32,32,0,0,0,48,480H464a32,32,0,0,0,7.982-62.992ZM328,32h64V48H328Zm8,72V64h48v75.63L335.243,104ZM256,65.908,450.555,208.084l-18.628,13.971L260.706,97.53a8,8,0,0,0-9.412,0L80.073,222.055,61.445,208.084ZM32,448a16.019,16.019,0,0,1,15.76-16l.019,0c.409.057.818.106,1.235.133a8,8,0,0,0,8.023-10.716A15.727,15.727,0,0,1,56,416a16.019,16.019,0,0,1,16-16v64H48A16.019,16.019,0,0,1,32,448Zm344,16H280V288h96Zm16,0V280a8,8,0,0,0-8-8H272a8,8,0,0,0-8,8V464H88V236.074L256,113.892,424,236.074V464Zm72,0H440V400a16.019,16.019,0,0,1,16,16,15.727,15.727,0,0,1-1.037,5.421,8,8,0,0,0,8.023,10.716c.417-.027.826-.076,1.235-.133l.019,0a16,16,0,0,1-.24,32Z"/><path d="M224,272H128a8,8,0,0,0-8,8V392a8,8,0,0,0,8,8h96a8,8,0,0,0,8-8V280A8,8,0,0,0,224,272Zm-8,56H184V288h32Zm-48-40v40H136V288Zm-32,56h32v40H136Zm48,40V344h32v40Z"/><circle cx="304" cy="368" r="8" transform="translate(-152.323 508.032) rotate(-67.5)"/>
  </symbol>
  <symbol id="icon-trophy" viewBox="0 0 450.391 450.391">
  <title>trophy</title>
  <g><path d="m447.183 66.584h-6.075c11.58-18.853 7.304-44.164-11.281-57.953-20.025-14.856-48.482-10.074-62.457 10.81l-31.546 47.144h-270.997c-22.275 0-40.397 18.122-40.397 40.397v258.274c0 22.275 18.122 40.397 40.397 40.397h156.914l-11.856 49.797h-25.589c-16.677 0-30.245 13.567-30.245 30.244v6.315h-31.545c-5.523 0-10 4.478-10 10s4.477 10 10 10h266.999c5.523 0 10-4.478 10-10s-4.477-10-10-10h-31.545v-6.315c0-16.677-13.568-30.244-30.245-30.244h-25.589l-11.856-49.797h156.914c22.275 0 40.397-18.122 40.397-40.397v-56.83-201.445c0-22.275-18.122-40.397-40.398-40.397zm-143.282 175.799c-15.635 10.945-44.926-3.932-72.898 10.994-6.825-35.455-2.522-68.8 33.003-76.16 4.591-.957 9.534-1.39 13.742-1.306 12.024 8.921 24.186 17.944 36.176 26.841 5.249 15.268 3.279 30.32-10.023 39.631zm10.078-107.188 28.307 21.002-21.769 26.541c-8.962-6.649-16.666-12.365-25.628-19.015 1.861-2.781 17.389-25.987 19.09-28.528zm70.014-104.631c7.574-11.321 23.021-13.955 33.917-5.87 10.9 8.086 12.852 23.632 4.215 34.163-15.325 18.683-51.759 63.104-67.142 81.859l-29.87-22.162zm-46.034 455.13v6.315h-163.908v-6.315c0-5.648 4.596-10.244 10.245-10.244h143.418c5.649 0 10.245 4.596 10.245 10.244zm-56.393-30.244h-51.122l11.856-49.797h27.41zm186.015-90.194c0 11.247-9.15 20.397-20.397 20.397-15.874 0-364.508 0-382.356 0-11.247 0-20.397-9.15-20.397-20.397v-46.83h28.576c5.523 0 10-4.478 10-10s-4.477-10-10-10h-28.578v-191.445c0-11.247 9.15-20.397 20.397-20.397h257.615c-9.58 14.317-37.529 56.085-46.382 69.314-19.597.177-39.162 7.004-51.97 21.956-17.429 20.345-20.491 52.313-9.101 95.015 1.947 7.302 11.058 9.918 16.571 4.652 25.857-24.707 58.061 2.243 86.9-21.099 17.604-14.25 21.77-36.904 15.132-58.088 8.973-10.94 82.664-100.784 91.658-111.75h21.933c11.247 0 20.397 9.15 20.397 20.397v191.444h-314.574c-5.523 0-10 4.478-10 10s4.477 10 10 10h314.576z"/><path d="m111.075 298.619c-4.814.984-8.04 5.145-8.04 9.811 0 6.255 5.719 11.045 11.95 9.8 5.537-1.124 8.91-6.46 7.85-11.76-1.113-5.47-6.419-8.926-11.76-7.851z" stroke-width="100"></path></g>
  </symbol>
  <symbol id="icon-key" viewBox="0 -31 512.00026 512">
  <title>key</title>
  <g>
  	<g>
  		<g>
  			<path d="M143.673,350.322c-25.969,0-47.02,21.052-47.02,47.02c0,25.969,21.052,47.02,47.02,47.02
  				c25.969,0,47.02-21.052,47.02-47.02C190.694,371.374,169.642,350.322,143.673,350.322z M143.673,423.465
  				c-14.427,0-26.122-11.695-26.122-26.122c0-14.427,11.695-26.122,26.122-26.122c14.427,0,26.122,11.695,26.122,26.122
  				C169.796,411.77,158.1,423.465,143.673,423.465z"/>
  			<path d="M342.204,350.322c-25.969,0-47.02,21.052-47.02,47.02c0,25.969,21.052,47.02,47.02,47.02s47.02-21.052,47.02-47.02
  				C389.224,371.374,368.173,350.322,342.204,350.322z M342.204,423.465c-14.427,0-26.122-11.695-26.122-26.122
  				c0-14.427,11.695-26.122,26.122-26.122s26.122,11.695,26.122,26.122C368.327,411.77,356.631,423.465,342.204,423.465z"/>
  			<path d="M448.261,76.037c-2.176-2.377-5.153-3.865-8.359-4.18L99.788,67.155L90.384,38.42
  				C83.759,19.211,65.771,6.243,45.453,6.028H10.449C4.678,6.028,0,10.706,0,16.477s4.678,10.449,10.449,10.449h35.004
  				c11.361,0.251,21.365,7.546,25.078,18.286l66.351,200.098l-5.224,12.016c-5.827,15.026-4.077,31.938,4.702,45.453
  				c8.695,13.274,23.323,21.466,39.184,21.943h203.233c5.771,0,10.449-4.678,10.449-10.449c0-5.771-4.678-10.449-10.449-10.449
  				H175.543c-8.957-0.224-17.202-4.936-21.943-12.539c-4.688-7.51-5.651-16.762-2.612-25.078l4.18-9.404l219.951-22.988
  				c24.16-2.661,44.034-20.233,49.633-43.886l25.078-105.012C450.96,81.893,450.36,78.492,448.261,76.037z M404.376,185.228
  				c-3.392,15.226-16.319,26.457-31.869,27.69l-217.339,22.465L106.58,88.053l320.261,4.702L404.376,185.228z"/>
  		</g>
  	</g>
  </g>
  <g>
  </g>
  <g>
  </g>
  <g>
  </g>
  <g>
  </g>
  <g>
  </g>
  <g>
  </g>
  <g>
  </g>
  <g>
  </g>
  <g>
  </g>
  <g>
  </g>
  <g>
  </g>
  <g>
  </g>
  <g>
  </g>
  <g>
  </g>
  <g>
  </g>
  </symbol>

<symbol id="icon-profile-male" viewBox="0 0 36 32">
<title>profile-male</title>
<path d="M0.5 31.983c0.268 0.067 0.542-0.088 0.612-0.354 1.030-3.843 5.216-4.839 7.718-5.435 0.627-0.149 1.122-0.267 1.444-0.406 2.85-1.237 3.779-3.227 4.057-4.679 0.034-0.175-0.029-0.355-0.165-0.473-1.484-1.281-2.736-3.204-3.526-5.416-0.022-0.063-0.057-0.121-0.103-0.171-1.045-1.136-1.645-2.337-1.645-3.294 0-0.559 0.211-0.934 0.686-1.217 0.145-0.087 0.236-0.24 0.243-0.408 0.221-5.094 3.849-9.104 8.299-9.13 0.005 0 0.102 0.007 0.107 0.007 4.472 0.062 8.077 4.158 8.206 9.324 0.004 0.143 0.068 0.277 0.178 0.369 0.313 0.265 0.459 0.601 0.459 1.057 0 0.801-0.427 1.786-1.201 2.772-0.037 0.047-0.065 0.101-0.084 0.158-0.8 2.536-2.236 4.775-3.938 6.145-0.144 0.116-0.212 0.302-0.178 0.483 0.278 1.451 1.207 3.44 4.057 4.679 0.337 0.146 0.86 0.26 1.523 0.403 2.477 0.536 6.622 1.435 7.639 5.232 0.060 0.223 0.262 0.37 0.482 0.37 0.043 0 0.086-0.006 0.13-0.017 0.267-0.072 0.425-0.346 0.354-0.613-1.175-4.387-5.871-5.404-8.393-5.95-0.585-0.127-1.090-0.236-1.336-0.344-1.86-0.808-3.006-2.039-3.411-3.665 1.727-1.483 3.172-3.771 3.998-6.337 0.877-1.14 1.359-2.314 1.359-3.317 0-0.669-0.216-1.227-0.644-1.663-0.238-5.604-4.237-10.017-9.2-10.088l-0.149-0.002c-4.873 0.026-8.889 4.323-9.24 9.83-0.626 0.46-0.944 1.105-0.944 1.924 0 1.183 0.669 2.598 1.84 3.896 0.809 2.223 2.063 4.176 3.556 5.543-0.403 1.632-1.55 2.867-3.414 3.676-0.241 0.105-0.721 0.22-1.277 0.352-2.541 0.604-7.269 1.729-8.453 6.147-0.071 0.267 0.087 0.54 0.354 0.612z"></path>
</symbol>
<symbol id="icon-map-pin" viewBox="0 0 514.028 514.028">
<title>map-pin</title>
<g><path d="m130.744 183.346 30.495-29.726c3.363-3.278 4.551-8.09 3.1-12.557s-5.24-7.662-9.89-8.338l-42.143-6.124-18.847-38.188c-2.078-4.212-6.287-6.828-10.983-6.829-.001 0-.001 0-.002 0-4.696 0-8.905 2.616-10.985 6.828l-18.847 38.189-42.145 6.124c-4.648.676-8.438 3.871-9.889 8.338-1.451 4.467-.264 9.278 3.1 12.557l30.496 29.726-7.198 41.973c-.795 4.629 1.072 9.221 4.872 11.982 2.147 1.56 4.66 2.353 7.189 2.353 1.946 0 3.903-.47 5.712-1.42l37.694-19.817 37.695 19.817c4.154 2.185 9.1 1.829 12.9-.933 3.8-2.76 5.667-7.351 4.873-11.981zm-15.028 1.111 6.501 37.907-34.042-17.897c-1.785-.938-3.742-1.408-5.701-1.408-1.957 0-3.915.469-5.7 1.407l-34.042 17.897 6.502-37.91c.68-3.974-.638-8.026-3.523-10.839l-27.541-26.846 38.062-5.53c3.989-.581 7.437-3.085 9.223-6.701l17.021-34.489 17.021 34.487c1.784 3.617 5.231 6.122 9.225 6.703l38.06 5.531-27.541 26.846c-2.891 2.814-4.208 6.868-3.525 10.842z"/><path d="m513.419 141.063c-1.451-4.467-5.24-7.662-9.89-8.338l-42.144-6.124-18.848-38.19c-2.079-4.211-6.289-6.828-10.986-6.827-4.696 0-8.905 2.617-10.983 6.829l-18.848 38.189-42.144 6.124c-4.648.676-8.438 3.871-9.889 8.338s-.264 9.278 3.1 12.557l30.495 29.726-7.199 41.975c-.793 4.629 1.074 9.22 4.874 11.98 3.8 2.761 8.742 3.117 12.901.933l37.694-19.817 37.694 19.817c1.809.951 3.765 1.421 5.712 1.42 2.529 0 5.042-.792 7.189-2.353 3.8-2.761 5.667-7.353 4.872-11.981l-7.198-41.974 30.496-29.726c3.366-3.279 4.553-8.091 3.102-12.558zm-45.101 32.551c-2.886 2.813-4.203 6.866-3.522 10.843l6.501 37.906-34.042-17.896c-3.568-1.876-7.831-1.877-11.401 0l-34.042 17.897 6.501-37.905c.683-3.976-.634-8.029-3.521-10.844l-27.541-26.846 38.062-5.53c3.991-.581 7.438-3.086 9.222-6.701l17.021-34.489 17.021 34.491c1.785 3.614 5.232 6.119 9.224 6.699l38.06 5.531z"/><path d="m385.749 460.938c-3.414-2.347-8.082-1.483-10.43 1.928-15.331 22.285-40.604 35.59-67.606 35.59-39.151 0-73.001-27.892-80.488-66.321l-4.523-23.218c-.454-2.336-1.308-4.556-2.538-6.603l-51.023-84.759c-3.496-5.809-2.56-13.183 2.277-17.932 2.849-2.797 6.586-4.283 10.605-4.174 3.99.105 7.673 1.784 10.37 4.727l34.024 37.129c2.714 2.961 6.889 3.935 10.633 2.478s6.164-4.994 6.164-9.011v-76.292c0-4.142-3.357-7.5-7.5-7.5s-7.5 3.358-7.5 7.5v62.584l-24.763-27.022c-5.47-5.969-12.94-9.374-21.034-9.587-8.065-.215-15.732 2.793-21.51 8.466-9.811 9.633-11.71 24.589-4.619 36.371l51.021 84.756c.324.538.548 1.122.668 1.736l4.524 23.221c8.855 45.458 48.898 78.453 95.211 78.453 31.94 0 61.834-15.734 79.964-42.088 2.349-3.415 1.485-8.084-1.927-10.432z"/><path d="m377.027 262.218c-5.254 0-10.171 1.471-14.36 4.023-3.878-10.614-14.076-18.21-26.016-18.21-5.66 0-10.927 1.71-15.316 4.637-4.43-9.402-13.995-15.927-25.059-15.927-4.571 0-8.884 1.12-12.688 3.091v-43.342l25.903 13.617c2.068 1.088 4.307 1.625 6.533 1.625 2.894 0 5.767-.907 8.223-2.691 4.348-3.158 6.483-8.41 5.575-13.706l-10.118-58.992 6.556-6.389c2.966-2.891 3.026-7.639.136-10.605s-7.638-3.027-10.606-.136l-6.928 6.752c-3.303 3.221-4.809 7.857-4.028 12.402l9.867 57.532-31.112-16.357v-9.885c0-15.267-12.421-27.688-27.687-27.688s-27.688 12.42-27.688 27.688v10.528l-29.888 15.713 9.867-57.531c.78-4.545-.726-9.182-4.029-12.403l-41.799-40.744 57.764-8.394c4.563-.663 8.508-3.528 10.552-7.666l25.833-52.344 25.834 52.346c2.043 4.136 5.987 7 10.551 7.663l57.764 8.394-11.494 11.205c-2.966 2.892-3.026 7.64-.135 10.606 2.891 2.965 7.64 3.028 10.605.135l12.926-12.6c3.848-3.75 5.207-9.254 3.547-14.365s-5.995-8.765-11.312-9.537l-59.23-8.607-26.491-53.673c-2.378-4.818-7.192-7.812-12.565-7.812s-10.187 2.993-12.565 7.811l-26.489 53.672-59.23 8.607c-5.317.772-9.652 4.427-11.312 9.537s-.301 10.615 3.546 14.364l42.86 41.778-10.119 58.993c-.907 5.295 1.229 10.547 5.576 13.705 2.456 1.784 5.329 2.691 8.223 2.691 2.227 0 4.465-.538 6.533-1.625l24.679-12.974v25.267c0 4.142 3.357 7.5 7.5 7.5s7.5-3.358 7.5-7.5v-52.742c0-6.996 5.691-12.688 12.688-12.688 6.996 0 12.687 5.691 12.687 12.688v125.54c0 4.142 3.357 7.5 7.5 7.5s7.5-3.358 7.5-7.5v-30.769c0-6.996 5.691-12.687 12.688-12.687s12.688 5.691 12.688 12.687v42.059c0 4.142 3.357 7.5 7.5 7.5s7.5-3.358 7.5-7.5v-30.769c0-6.996 5.691-12.688 12.688-12.688s12.688 5.691 12.688 12.688v44.956c0 4.142 3.357 7.5 7.5 7.5s7.5-3.358 7.5-7.5v-30.769c0-6.996 5.692-12.688 12.688-12.688s12.688 5.691 12.688 12.688v126.549c0 6.647-.803 13.275-2.388 19.698-.991 4.022 1.465 8.086 5.486 9.078.604.149 1.207.22 1.802.22 3.37 0 6.433-2.288 7.276-5.706 1.873-7.598 2.823-15.434 2.823-23.29v-126.547c-.003-15.267-12.424-27.687-27.691-27.687z"/></g>
</symbol>
<symbol id="icon-heart" viewBox="0 0 37 32">
<title>heart</title>
<path d="M27 0c-2.476 0-4.856 0.921-6.704 2.595-0.702 0.635-1.303 1.357-1.796 2.154-0.493-0.797-1.094-1.519-1.796-2.155-1.848-1.673-4.228-2.594-6.704-2.594-5.514 0-10 4.486-10 10 0 3.722 1.158 6.66 3.871 9.825 3.942 4.6 13.919 11.62 14.342 11.917 0.086 0.061 0.187 0.091 0.287 0.091s0.201-0.030 0.287-0.091c0.423-0.297 10.4-7.317 14.343-11.917 2.712-3.165 3.87-6.103 3.87-9.825 0-5.514-4.486-10-10-10zM32.371 19.175c-3.495 4.076-12.18 10.341-13.871 11.545-1.691-1.204-10.376-7.469-13.87-11.545-2.545-2.969-3.63-5.713-3.63-9.175 0-4.963 4.038-9 9-9 2.227 0 4.37 0.829 6.032 2.335 0.838 0.76 1.518 1.656 2.020 2.664 0.17 0.34 0.726 0.34 0.896 0 0.502-1.008 1.182-1.904 2.020-2.663 1.662-1.507 3.805-2.336 6.032-2.336 4.962 0 9 4.037 9 9 0 3.462-1.085 6.206-3.629 9.175z"></path>
</symbol>
<symbol id="icon-global"  viewBox="0 0 512 512">
<title>global</title>
<g>
	<g>
		<path d="M404.267,315.41c-10.048-20.949-45.995-50.027-80.725-78.123c-19.371-15.659-37.675-30.464-49.344-42.133
			c-2.923-2.944-7.296-3.883-11.157-2.496c-7.189,2.603-11.627,4.608-15.125,6.165c-5.333,2.389-7.125,3.2-14.315,3.925
			c-3.179,0.32-6.037,2.027-7.808,4.672c-15.083,22.549-30.699,20.629-41.131,17.131c-3.328-1.109-3.925-2.539-4.245-3.904
			c-2.24-9.365,9.003-31.168,23.573-45.739c34.667-34.688,52.544-43.371,90.304-26.496c42.837,19.157,85.76,34.155,86.187,34.304
			c5.611,1.941,11.648-1.003,13.589-6.571c1.92-5.568-1.003-11.648-6.571-13.589c-0.427-0.149-42.496-14.848-84.48-33.643
			c-48.917-21.867-75.755-7.467-114.091,30.891c-14.592,14.592-34.411,44.117-29.291,65.771c2.197,9.216,8.683,16.043,18.325,19.221
			c24.171,7.979,46.229,0.341,62.656-21.461c6.784-1.045,10.475-2.581,16.021-5.077c2.005-0.896,4.352-1.941,7.467-3.2
			c12.203,11.456,28.672,24.789,46.016,38.805c31.36,25.365,66.923,54.123,74.923,70.763c3.947,8.213-0.299,13.568-3.179,16.021
			c-4.224,3.627-10.005,4.779-13.141,2.581c-3.456-2.368-7.957-2.517-11.52-0.384c-3.584,2.133-5.589,6.165-5.141,10.304
			c0.725,6.784-5.483,10.667-8.171,12.011c-6.827,3.456-13.952,2.859-16.619,0.384c-2.987-2.773-7.275-3.584-11.072-2.176
			c-3.797,1.429-6.443,4.928-6.827,8.981c-0.64,6.997-5.824,13.717-12.587,16.341c-3.264,1.237-8,1.984-12.245-1.899
			c-2.645-2.389-6.315-3.307-9.749-2.475c-3.477,0.853-6.272,3.371-7.488,6.72c-0.405,1.067-1.323,3.627-11.307,3.627
			c-7.104,0-19.883-4.8-26.133-8.939c-7.488-4.928-54.443-39.957-94.997-73.92c-5.696-4.8-15.552-15.083-24.256-24.171
			c-7.723-8.064-14.784-15.381-18.411-18.453c-4.544-3.84-11.264-3.264-15.04,1.259c-3.797,4.501-3.243,11.243,1.259,15.04
			c3.307,2.795,9.707,9.557,16.768,16.917c9.515,9.941,19.349,20.224,25.963,25.771c39.723,33.259,87.467,69.163,96.981,75.413
			c7.851,5.163,24.768,12.416,37.867,12.416c10.517,0,18.603-2.411,24.213-7.125c7.509,2.923,16.043,2.944,24.256-0.256
			c9.707-3.755,17.685-11.328,22.208-20.501c8.405,1.792,18.027,0.533,26.773-3.861c8.555-4.309,14.741-10.901,17.813-18.603
			c8.491,0.448,17.237-2.56,24.469-8.768C407.979,346.407,411.349,330.109,404.267,315.41z"/>
	</g>
</g>
<g>
	<g>
		<path d="M213.333,138.663h-96c-5.888,0-10.667,4.779-10.667,10.667s4.779,10.667,10.667,10.667h96
			c5.888,0,10.667-4.779,10.667-10.667S219.221,138.663,213.333,138.663z"/>
	</g>
</g>
<g>
	<g>
		<path d="M435.52,292.711c-3.307-4.885-9.92-6.229-14.805-2.901l-31.189,20.949c-4.885,3.285-6.187,9.92-2.901,14.805
			c2.069,3.051,5.44,4.715,8.875,4.715c2.027,0,4.096-0.576,5.931-1.813l31.189-20.949
			C437.504,304.231,438.805,297.597,435.52,292.711z"/>
	</g>
</g>
<g>
	<g>
		<path d="M369.301,343.613c-7.637-6.016-41.792-40.981-62.912-62.997c-4.075-4.267-10.837-4.416-15.083-0.32
			c-4.267,4.075-4.395,10.837-0.32,15.083c5.483,5.717,53.845,56.128,65.088,65.003c1.941,1.536,4.288,2.283,6.592,2.283
			c3.136,0,6.272-1.408,8.405-4.075C374.72,353.981,373.931,347.261,369.301,343.613z"/>
	</g>
</g>
<g>
	<g>
		<path d="M326.677,365.01c-12.779-10.219-44.885-44.331-52.139-52.224c-4.011-4.352-10.731-4.608-15.083-0.64
			c-4.331,3.989-4.629,10.752-0.64,15.083c0.384,0.405,38.699,41.771,54.528,54.443c1.963,1.557,4.331,2.325,6.656,2.325
			c3.115,0,6.229-1.387,8.341-3.989C332.011,375.399,331.264,368.679,326.677,365.01z"/>
	</g>
</g>
<g>
	<g>
		<path d="M284.224,386.493c-15.211-12.821-46.336-45.952-52.416-52.459c-4.032-4.309-10.795-4.544-15.083-0.512
			c-4.309,4.032-4.523,10.773-0.512,15.083c8.747,9.365,38.528,40.939,54.251,54.208c2.005,1.685,4.437,2.517,6.869,2.517
			c3.029,0,6.059-1.301,8.171-3.797C289.301,397.01,288.725,390.29,284.224,386.493z"/>
	</g>
</g>
<g>
	<g>
		<path d="M124.672,120.253C106.389,102.93,33.28,97.319,11.307,96.018c-3.029-0.149-5.824,0.853-7.957,2.88
			C1.216,100.903,0,103.719,0,106.663v192c0,5.888,4.779,10.667,10.667,10.667h64c4.608,0,8.704-2.965,10.133-7.36
			c1.557-4.779,38.315-117.589,43.157-173.056C128.235,125.671,127.04,122.471,124.672,120.253z M66.88,287.997H21.333V118.098
			c34.283,2.709,71.275,8.597,84.715,15.125C100.395,179.943,74.816,262.951,66.88,287.997z"/>
	</g>
</g>
<g>
	<g>
		<path d="M501.333,117.33c-83.755,0-130.219,21.44-132.16,22.336c-2.773,1.301-4.843,3.712-5.696,6.635s-0.427,6.059,1.173,8.661
			c13.184,21.227,54.464,139.115,62.4,167.872c1.28,4.629,5.483,7.829,10.283,7.829h64c5.888,0,10.667-4.779,10.667-10.667v-192
			C512,122.087,507.221,117.33,501.333,117.33z M490.667,309.33h-45.355c-10.112-32.939-39.979-118.827-56.64-154.325
			c16.277-5.525,51.243-15.019,101.995-16.213V309.33z"/>
	</g>
</g>
<g>
</g>
<g>
</g>
<g>
</g>
<g>
</g>
<g>
</g>
<g>
</g>
<g>
</g>
<g>
</g>
<g>
</g>
<g>
</g>
<g>
</g>
<g>
</g>
<g>
</g>
<g>
</g>
<g>
</g>
</symbol>
</defs>
</svg>
